<?xml version="1.0" encoding="UTF-8"?><svg id="a" xmlns="http://www.w3.org/2000/svg" viewBox="0 0 22.88 22.88"><defs><style>.b{fill:none;stroke:#fff;stroke-linecap:round;stroke-linejoin:round;stroke-width:2px;}</style></defs><path class="b" d="M5.44,8.44h-1.5c-1.38,0-2.5-1.12-2.5-2.5s1.12-2.5,2.5-2.5h1.5"/><path class="b" d="M17.44,8.44h1.5c1.38,0,2.5-1.12,2.5-2.5s-1.12-2.5-2.5-2.5h-1.5"/><path class="b" d="M3.44,21.44h16"/><path class="b" d="M9.44,14.1v2.34c0,.55-.47.98-.97,1.21-1.18.54-2.03,2.03-2.03,3.79"/><path class="b" d="M13.44,14.1v2.34c0,.55.47.98.97,1.21,1.18.54,2.03,2.03,2.03,3.79"/><path class="b" d="M17.44,1.44H5.44v7c0,3.31,2.69,6,6,6s6-2.69,6-6V1.44Z"/></svg>