<?xml version="1.0" encoding="UTF-8"?>
<svg id="a" xmlns="http://www.w3.org/2000/svg" version="1.1" viewBox="0 0 759 156.22">
  <!-- Generator: Adobe Illustrator 29.6.1, SVG Export Plug-In . SVG Version: 2.1.1 Build 9)  -->
  <defs>
    <style>
      .st0 {
        fill: #fff;
      }

      .st1 {
        fill: #488fcd;
      }
    </style>
  </defs>
  <path class="st0" d="M152.27,131.03c-1.04,0-1.98-.39-2.81-1.17s-1.25-1.74-1.25-2.89V25.92c0-1.14.41-2.11,1.25-2.88.83-.78,1.77-1.17,2.81-1.17h49.74c9.46,0,17.2,1.25,23.23,3.74,6.03,2.49,10.5,6.08,13.41,10.76s4.37,10.45,4.37,17.31c0,3.54-.7,6.68-2.11,9.43-1.4,2.76-3.09,5.04-5.07,6.86s-3.85,3.15-5.61,3.98c4.05,1.77,7.59,4.76,10.6,8.97s4.52,9.02,4.52,14.42c0,7.28-1.64,13.41-4.91,18.4-3.27,4.99-8.01,8.79-14.19,11.38-6.19,2.6-13.75,3.9-22.69,3.9h-51.3,0ZM181.74,64.13h16.68c3.33,0,5.77-.94,7.33-2.81s2.34-4.05,2.34-6.55-.78-4.68-2.34-6.55c-1.56-1.87-4-2.81-7.33-2.81h-16.68v18.71h0ZM181.74,107.48h18.24c3.53,0,6.13-1.07,7.8-3.2,1.66-2.13,2.5-4.5,2.5-7.1s-.88-5.07-2.65-7.1-4.32-3.04-7.64-3.04h-18.24v20.43h0Z"/>
  <path class="st0" d="M256.59,131.03c-1.04,0-1.98-.39-2.81-1.17s-1.25-1.74-1.25-2.89V25.92c0-1.14.41-2.11,1.25-2.88.83-.78,1.77-1.17,2.81-1.17h76.41c1.14,0,2.13.39,2.96,1.17s1.25,1.74,1.25,2.88v18.4c0,1.04-.42,1.98-1.25,2.81s-1.82,1.25-2.96,1.25h-48.18v15.44h44.75c1.14,0,2.13.39,2.96,1.17s1.25,1.74,1.25,2.89v16.84c0,1.15-.42,2.11-1.25,2.89s-1.82,1.17-2.96,1.17h-44.75v15.75h49.43c1.14,0,2.13.42,2.96,1.25s1.25,1.82,1.25,2.96v18.24c0,1.15-.42,2.11-1.25,2.89s-1.82,1.17-2.96,1.17h-77.66Z"/>
  <path class="st0" d="M378.73,131.03c-1.15,0-2.11-.39-2.89-1.17-.78-.78-1.17-1.74-1.17-2.89V50.87h-26.82c-1.15,0-2.11-.39-2.89-1.17s-1.17-1.74-1.17-2.88v-20.9c0-1.14.39-2.11,1.17-2.88s1.74-1.17,2.89-1.17h87.63c1.14,0,2.11.39,2.89,1.17s1.17,1.74,1.17,2.88v20.9c0,1.15-.39,2.11-1.17,2.88-.78.78-1.74,1.17-2.89,1.17h-26.82v76.1c0,1.15-.39,2.11-1.17,2.89s-1.74,1.17-2.88,1.17h-25.88,0Z"/>
  <path class="st0" d="M480.49,131.03c-1.15,0-2.11-.39-2.89-1.17s-1.17-1.74-1.17-2.89V50.87h-26.82c-1.15,0-2.11-.39-2.89-1.17s-1.17-1.74-1.17-2.88v-20.9c0-1.14.39-2.11,1.17-2.88s1.74-1.17,2.89-1.17h87.64c1.14,0,2.11.39,2.89,1.17s1.17,1.74,1.17,2.88v20.9c0,1.15-.39,2.11-1.17,2.88-.78.78-1.74,1.17-2.89,1.17h-26.82v76.1c0,1.15-.39,2.11-1.17,2.89s-1.74,1.17-2.88,1.17h-25.89Z"/>
  <path class="st0" d="M595.77,132.59c-9.98,0-18.63-1.56-25.96-4.68s-13.1-7.82-17.31-14.11-6.47-14.11-6.78-23.47c-.1-4.37-.16-8.86-.16-13.49s.05-9.22.16-13.8c.31-9.25,2.57-17.05,6.78-23.39s10-11.15,17.39-14.42c7.38-3.27,16.01-4.91,25.89-4.91s18.35,1.64,25.73,4.91,13.2,8.08,17.46,14.42,6.5,14.14,6.71,23.39c.21,4.58.31,9.18.31,13.8s-.1,9.12-.31,13.49c-.31,9.36-2.57,17.18-6.78,23.47-4.21,6.29-9.98,10.99-17.31,14.11s-15.93,4.68-25.81,4.68h-.01ZM595.77,106.08c4.37,0,7.95-1.33,10.76-3.98s4.26-6.89,4.37-12.71c.21-4.47.31-8.81.31-13.02s-.1-8.5-.31-12.86c-.1-3.84-.81-7.02-2.11-9.51-1.3-2.5-3.07-4.31-5.3-5.46-2.24-1.14-4.81-1.72-7.72-1.72s-5.51.57-7.8,1.72-4.08,2.96-5.38,5.46-2,5.67-2.11,9.51c-.1,4.37-.16,8.65-.16,12.86s.05,8.55.16,13.02c.21,5.82,1.69,10.06,4.44,12.71,2.75,2.65,6.37,3.98,10.84,3.98h0Z"/>
  <path class="st0" d="M657.32,131.03c-1.04,0-1.98-.39-2.81-1.17s-1.25-1.74-1.25-2.89V25.92c0-1.14.42-2.11,1.25-2.88.83-.78,1.77-1.17,2.81-1.17h44.44c14.14,0,25.24,3.22,33.29,9.67,8.05,6.45,12.08,15.44,12.08,26.98,0,7.28-1.66,13.46-4.99,18.56-3.33,5.1-7.69,9.1-13.1,12.01l20.27,36.8c.31.62.47,1.2.47,1.72,0,.94-.31,1.74-.94,2.42-.62.68-1.4,1.01-2.34,1.01h-26.35c-1.98,0-3.48-.49-4.52-1.48-1.04-.99-1.72-1.9-2.03-2.73l-15.59-32.12h-11.23v32.28c0,1.15-.39,2.11-1.17,2.89-.78.78-1.74,1.17-2.89,1.17h-25.42l.02-.02ZM686.79,68.97h14.81c3.64,0,6.34-1.01,8.11-3.04,1.77-2.03,2.65-4.55,2.65-7.56s-.86-5.77-2.57-7.95c-1.72-2.18-4.44-3.27-8.19-3.27h-14.81v21.83h0Z"/>
  <path class="st0" d="M66.09,105c11.27-1.16,20.43-1.55,26.33-18.06,0-8.72.02-59.48.02-59.48,0,0,.76-17.26,20.31-17.26s18.69,17.26,18.69,17.26v72.71c-12.88,35.11-49.98,29.92-65.35,4.83Z"/>
  <path class="st1" d="M7.08,27.45c4.91-20.98,33.14-22.1,39.66,0v61.46c6.28,28.44,24.77,43.31,52.02,48.44-25.14,14.29-80.66,11.17-91.68-46.32V27.45h0Z"/>
</svg>